<svg id="ch14_chez14_icon_dark" data-name="Dark" xmlns="http://www.w3.org/2000/svg" width="1000" height="1000"
    viewBox="0 0 1000 1000">
    <defs>
        <style>
            .D3s81RLwK-cls-1 {
                fill: #1d252c;
            }

            .D3s81RLwK-cls-2 {
                fill: #cfd2d3;
            }

            .D3s81RLwK-cls-3 {
                fill: #f32735;
            }

            @media (prefers-color-scheme: light) {
                .D3s81RLwK-cls-2 {
                    fill: #1d252c;
                }

                .D3s81RLwK-cls-1 {
                    fill: #cfd2d3;
                }
            }
        </style>
    </defs>
    <title>chez14-logo-icon</title>
    <rect class="D3s81RLwK-cls-1" width="1000" height="1000" />
    <path class="D3s81RLwK-cls-2"
        d="M357.47,601.73q-76.22,0-76.21-100.19,0-48.19,18.75-75.61t52.24-27.42a146.6,146.6,0,0,1,15.41.8,40.68,40.68,0,0,1,7.09-7.42l66.5-54.19a245.77,245.77,0,0,0-88.05-16.12q-51.52,0-89.63,22t-58.4,62.8q-20.29,40.85-20.3,94.73,0,86.18,41.9,131.76t120.49,45.59q54.84,0,98.29-19.23v-79.3a445.31,445.31,0,0,1-43.45,15.43A156.18,156.18,0,0,1,357.47,601.73Z" />
    <path class="D3s81RLwK-cls-3"
        d="M604.34,326.57H519.82l-18.33,14.94-24.87,20.26L444.41,388,414.6,412.3l-14,11.37,6.18,7.6,24.06,29.57,18.43,22.66L488.72,451a202.28,202.28,0,0,0,21.84-22.31q-1.43,27.78-1.42,61.25v29.58a41.91,41.91,0,0,1,2.92-5l92.28-134.92Z" />
    <path class="D3s81RLwK-cls-3"
        d="M776.91,536.44V326.57H690.25l-44.91,65.66-20.5,30-20.5,30-58.43,85.45v68.85H684.32v67.19h92.59V606.48h38.22v-70Zm-91.76-71.1q-.84,19.35-.83,30.74v40.36H627.1l18.24-27.14,20.22-30.07A251.19,251.19,0,0,0,683.84,445h2.61Q686,446,685.15,465.34Z" />
</svg>